<svg xmlns="http://www.w3.org/2000/svg" version="1.1" xmlns:xlink="http://www.w3.org/1999/xlink" xmlns:svgjs="http://svgjs.dev/svgjs" width="2000" height="1789" viewBox="0 0 2000 1789"><g transform="matrix(1,0,0,1,1.6593152699011853,0.7242914979756279)"><svg viewBox="0 0 276 247" data-background-color="#ffffff" preserveAspectRatio="xMidYMid meet" height="1789" width="2000" xmlns="http://www.w3.org/2000/svg" xmlns:xlink="http://www.w3.org/1999/xlink"><g id="tight-bounds" transform="matrix(1,0,0,1,-0.2289855072463638,-0.09999999999999432)"><svg viewBox="0 0 276.4579710144927 247.2" height="247.2" width="276.4579710144927"><g><svg viewBox="0 0 276.4579710144927 247.2" height="247.2" width="276.4579710144927"><g><svg viewBox="0 0 276.4579710144927 247.2" height="247.2" width="276.4579710144927"><g><svg viewBox="0 0 276.4579710144927 247.2" height="247.2" width="276.4579710144927"><g id="textblocktransform"><svg viewBox="0 0 276.4579710144927 247.2" height="247.2" width="276.4579710144927" id="textblock"><g><svg viewBox="0 0 276.4579710144927 247.2" height="247.2" width="276.4579710144927"><g transform="matrix(1,0,0,1,0,0)"><svg width="276.4579710144927" viewBox="0.81 -40.43 45.21 40.43" height="247.2" data-palette-color="#e5a1aa"><path d="M27.15-11.87L19.73-11.87 20.43-13.62 26.44-13.62 27.15-11.87ZM28.56-8.35L18.36-8.35 19.04-10.11 27.81-10.11 28.56-8.35ZM29.93-4.83L16.99-4.83 17.68-6.59 29.2-6.59 29.93-4.83ZM17.75-38.06L2.71 0 0.81 0 16.8-40.43 18.7-40.43 34.67 0 32.79 0 17.75-38.06ZM4.59 0L17.97-33.89 18.97-31.64 6.47 0 4.59 0ZM8.37 0L19.92-29.25 20.85-26.83 10.28 0 8.37 0ZM12.16 0L21.78-24.41 22.71-21.95 14.04 0 12.16 0ZM30.03-40.43L46.02 0 44.12 0 28.15-40.43 30.03-40.43ZM24.37-40.43L26.25-40.43 42.24 0 40.36 0 24.37-40.43ZM20.58-40.43L22.46-40.43 38.45 0 36.55 0 20.58-40.43Z" opacity="1" transform="matrix(1,0,0,1,0,0)" fill="#e5a1aa" class="undefined-text-0" data-fill-palette-color="primary" id="text-0"></path></svg></g></svg></g></svg></g></svg></g></svg></g></svg></g><defs></defs></svg><rect width="276.4579710144927" height="247.2" fill="none" stroke="none" visibility="hidden"></rect></g></svg></g></svg>